<svg xmlns="http://www.w3.org/2000/svg" xmlns:xlink="http://www.w3.org/1999/xlink" width="500" zoomAndPan="magnify" viewBox="0 0 375 374.999991" height="500" preserveAspectRatio="xMidYMid meet" version="1.0"><path fill="#d66049" d="M 165.917969 9.851562 C 83.082031 19.035156 15.585938 85.871094 5.589844 168.578125 C 5.265625 171.171875 5 173.773438 4.789062 176.382812 C 4.574219 178.992188 4.421875 181.601562 4.320312 184.214844 C 4.21875 186.832031 4.175781 189.445312 4.1875 192.0625 C 4.203125 194.679688 4.269531 197.292969 4.394531 199.90625 C 4.519531 202.519531 4.699219 205.128906 4.933594 207.734375 C 5.171875 210.339844 5.464844 212.941406 5.8125 215.535156 C 6.160156 218.128906 6.5625 220.710938 7.019531 223.289062 C 7.480469 225.863281 7.992188 228.429688 8.5625 230.984375 C 9.128906 233.535156 9.75 236.078125 10.429688 238.605469 C 11.105469 241.132812 11.835938 243.644531 12.621094 246.140625 C 13.40625 248.636719 14.246094 251.113281 15.136719 253.574219 C 16.027344 256.03125 16.96875 258.472656 17.964844 260.890625 C 18.960938 263.3125 20.007812 265.707031 21.105469 268.082031 C 22.207031 270.457031 23.355469 272.808594 24.554688 275.132812 C 25.753906 277.460938 27 279.757812 28.296875 282.03125 C 29.597656 284.300781 30.941406 286.542969 32.335938 288.757812 C 33.730469 290.972656 35.167969 293.15625 36.65625 295.308594 C 38.144531 297.460938 39.675781 299.582031 41.253906 301.667969 C 42.832031 303.753906 44.453125 305.808594 46.121094 307.824219 C 47.789062 309.84375 49.496094 311.824219 51.246094 313.765625 C 52.996094 315.710938 54.789062 317.617188 56.621094 319.484375 C 58.453125 321.351562 60.328125 323.179688 62.238281 324.964844 C 64.148438 326.753906 66.097656 328.5 68.082031 330.203125 C 70.066406 331.90625 72.089844 333.566406 74.144531 335.183594 C 76.203125 336.800781 78.292969 338.371094 80.417969 339.898438 C 82.542969 341.425781 84.699219 342.90625 86.886719 344.34375 C 89.074219 345.777344 91.292969 347.164062 93.539062 348.503906 C 95.785156 349.84375 98.0625 351.136719 100.363281 352.378906 C 102.664062 353.621094 104.992188 354.8125 107.347656 355.957031 C 109.699219 357.097656 112.078125 358.191406 114.480469 359.230469 C 116.878906 360.273438 119.300781 361.261719 121.742188 362.199219 C 124.1875 363.136719 126.648438 364.019531 129.128906 364.851562 C 138.269531 366.3125 141.191406 360.648438 141.191406 355.722656 L 141.191406 324.84375 C 90.59375 335.835938 79.824219 300.378906 79.824219 300.378906 C 71.445312 279.1875 59.550781 273.523438 59.550781 273.523438 C 42.921875 262.195312 60.84375 262.570312 60.84375 262.570312 C 79.101562 263.863281 88.785156 281.382812 88.785156 281.382812 C 104.675781 309.144531 131.519531 300.921875 141.929688 296.539062 C 143.574219 284.667969 148.394531 276.625 153.4375 272.0625 C 112.824219 267.496094 70.320312 251.785156 70.320312 182.207031 C 70.320312 161.929688 77.265625 145.675781 89.132812 132.707031 C 87.3125 128.144531 80.910156 109.148438 90.957031 84.488281 C 90.957031 84.488281 106.304688 79.550781 141.191406 103.121094 C 148.636719 101.117188 156.179688 99.609375 163.824219 98.597656 C 171.464844 97.589844 179.140625 97.082031 186.851562 97.082031 C 194.5625 97.082031 202.238281 97.589844 209.878906 98.597656 C 217.523438 99.609375 225.066406 101.117188 232.507812 103.121094 C 267.421875 79.550781 282.746094 84.488281 282.746094 84.488281 C 292.777344 109.148438 286.390625 128.144531 284.566406 132.707031 C 296.4375 145.636719 303.382812 161.929688 303.382812 182.207031 C 303.382812 251.964844 260.632812 267.316406 219.914062 271.878906 C 226.484375 277.542969 232.507812 288.691406 232.507812 305.667969 L 232.507812 355.722656 C 232.507812 360.648438 235.433594 366.492188 244.753906 364.851562 C 247.402344 363.964844 250.027344 363.015625 252.632812 362.007812 C 255.238281 361 257.816406 359.933594 260.371094 358.808594 C 262.929688 357.683594 265.457031 356.5 267.957031 355.257812 C 270.457031 354.015625 272.929688 352.71875 275.371094 351.363281 C 277.8125 350.007812 280.222656 348.597656 282.601562 347.132812 C 284.976562 345.667969 287.320312 344.148438 289.625 342.578125 C 291.933594 341.003906 294.203125 339.378906 296.4375 337.703125 C 298.671875 336.027344 300.863281 334.300781 303.019531 332.523438 C 305.171875 330.746094 307.285156 328.917969 309.355469 327.046875 C 311.425781 325.171875 313.449219 323.25 315.433594 321.285156 C 317.414062 319.316406 319.351562 317.308594 321.242188 315.25 C 323.132812 313.195312 324.972656 311.097656 326.769531 308.957031 C 328.5625 306.820312 330.304688 304.640625 332 302.417969 C 333.695312 300.199219 335.335938 297.941406 336.925781 295.648438 C 338.519531 293.351562 340.054688 291.023438 341.539062 288.65625 C 343.023438 286.289062 344.453125 283.894531 345.828125 281.460938 C 347.199219 279.03125 348.519531 276.570312 349.78125 274.078125 C 351.039062 271.585938 352.246094 269.066406 353.390625 266.523438 C 354.535156 263.976562 355.625 261.402344 356.652344 258.808594 C 357.679688 256.210938 358.648438 253.59375 359.554688 250.953125 C 360.464844 248.3125 361.3125 245.652344 362.097656 242.972656 C 362.882812 240.292969 363.609375 237.597656 364.269531 234.882812 C 364.933594 232.171875 365.53125 229.445312 366.070312 226.703125 C 366.609375 223.964844 367.082031 221.214844 367.496094 218.453125 C 367.90625 215.691406 368.253906 212.921875 368.539062 210.140625 C 368.824219 207.363281 369.046875 204.582031 369.203125 201.792969 C 369.359375 199.003906 369.453125 196.214844 369.484375 193.421875 C 369.511719 190.632812 369.476562 187.839844 369.378906 185.050781 C 369.28125 182.257812 369.117188 179.472656 368.890625 176.6875 C 368.664062 173.90625 368.375 171.128906 368.023438 168.359375 C 367.667969 165.589844 367.253906 162.828125 366.773438 160.078125 C 366.292969 157.328125 365.75 154.585938 365.144531 151.863281 C 364.539062 149.136719 363.871094 146.425781 363.140625 143.730469 C 362.414062 141.035156 361.621094 138.355469 360.769531 135.699219 C 359.917969 133.039062 359.003906 130.402344 358.03125 127.78125 C 357.058594 125.164062 356.023438 122.570312 354.933594 120.003906 C 353.839844 117.433594 352.691406 114.886719 351.480469 112.371094 C 350.273438 109.855469 349.007812 107.367188 347.6875 104.90625 C 346.363281 102.445312 344.984375 100.019531 343.550781 97.621094 C 342.117188 95.226562 340.628906 92.863281 339.085938 90.535156 C 337.546875 88.207031 335.949219 85.917969 334.304688 83.660156 C 332.65625 81.40625 330.957031 79.191406 329.210938 77.015625 C 327.460938 74.835938 325.664062 72.699219 323.816406 70.605469 C 321.972656 68.511719 320.078125 66.460938 318.136719 64.453125 C 316.195312 62.445312 314.210938 60.480469 312.179688 58.5625 C 310.152344 56.648438 308.078125 54.777344 305.960938 52.957031 C 303.84375 51.132812 301.6875 49.359375 299.492188 47.636719 C 297.292969 45.914062 295.058594 44.242188 292.785156 42.621094 C 290.511719 41 288.203125 39.433594 285.855469 37.917969 C 283.511719 36.402344 281.128906 34.941406 278.71875 33.535156 C 276.304688 32.128906 273.863281 30.78125 271.386719 29.488281 C 268.914062 28.191406 266.410156 26.957031 263.878906 25.777344 C 261.347656 24.597656 258.789062 23.476562 256.207031 22.414062 C 253.625 21.351562 251.019531 20.351562 248.390625 19.40625 C 245.761719 18.464844 243.113281 17.582031 240.445312 16.761719 C 237.777344 15.9375 235.089844 15.179688 232.386719 14.480469 C 229.683594 13.78125 226.964844 13.148438 224.234375 12.574219 C 221.5 12 218.753906 11.488281 216 11.039062 C 213.242188 10.59375 210.476562 10.207031 207.703125 9.886719 C 204.929688 9.566406 202.148438 9.308594 199.363281 9.113281 C 196.578125 8.917969 193.789062 8.789062 191 8.722656 C 188.207031 8.65625 185.414062 8.65625 182.625 8.714844 C 179.832031 8.777344 177.042969 8.902344 174.257812 9.09375 C 171.472656 9.28125 168.691406 9.535156 165.917969 9.851562 Z M 165.917969 9.851562 " fill-opacity="1" fill-rule="nonzero"/></svg>