<svg xmlns="http://www.w3.org/2000/svg" xmlns:xlink="http://www.w3.org/1999/xlink" width="500" zoomAndPan="magnify" viewBox="0 0 375 374.999991" height="500" preserveAspectRatio="xMidYMid meet" version="1.0"><path fill="#d66049" d="M 298.230469 0 L 76.769531 0 C 34.4375 0 0 34.4375 0 76.769531 L 0 298.230469 C 0 340.5625 34.4375 375 76.769531 375 L 298.230469 375 C 340.5625 375 375 340.5625 375 298.230469 L 375 76.769531 C 375 34.4375 340.5625 0 298.230469 0 Z M 352.941406 298.230469 C 352.941406 328.398438 328.398438 352.941406 298.230469 352.941406 L 76.769531 352.941406 C 46.601562 352.941406 22.058594 328.398438 22.058594 298.230469 L 22.058594 76.769531 C 22.058594 46.601562 46.601562 22.058594 76.769531 22.058594 L 298.230469 22.058594 C 328.398438 22.058594 352.941406 46.601562 352.941406 76.769531 Z M 352.941406 298.230469 " fill-opacity="1" fill-rule="nonzero"/><path fill="#d66049" d="M 113.96875 148.988281 L 69.851562 148.988281 C 63.761719 148.988281 58.824219 153.925781 58.824219 160.019531 L 58.824219 303.769531 C 58.824219 309.859375 63.761719 314.796875 69.851562 314.796875 L 113.96875 314.796875 C 120.0625 314.796875 125 309.859375 125 303.769531 L 125 160.019531 C 125 153.925781 120.0625 148.988281 113.96875 148.988281 Z M 102.941406 292.738281 L 80.882812 292.738281 L 80.882812 171.046875 L 102.941406 171.046875 Z M 102.941406 292.738281 " fill-opacity="1" fill-rule="nonzero"/><path fill="#d66049" d="M 213.234375 168.644531 L 213.234375 160.019531 C 213.234375 153.925781 208.296875 148.988281 202.207031 148.988281 L 158.089844 148.988281 C 151.996094 148.988281 147.058594 153.925781 147.058594 160.019531 L 147.058594 303.769531 C 147.058594 309.859375 151.996094 314.796875 158.089844 314.796875 L 202.207031 314.796875 C 208.296875 314.796875 213.234375 309.859375 213.234375 303.769531 L 213.234375 251.195312 C 213.234375 241.058594 221.480469 232.8125 231.617188 232.8125 C 241.753906 232.8125 250 241.058594 250 251.195312 L 250 303.769531 C 250 309.859375 254.9375 314.796875 261.03125 314.796875 L 305.148438 314.796875 C 311.238281 314.796875 316.175781 309.859375 316.175781 303.769531 L 316.175781 251.195312 C 316.175781 197.328125 266.09375 156.863281 213.234375 168.644531 Z M 294.117188 292.738281 L 272.058594 292.738281 L 272.058594 251.195312 C 272.058594 228.894531 253.917969 210.753906 231.617188 210.753906 C 209.320312 210.753906 191.175781 228.894531 191.175781 251.195312 L 191.175781 292.738281 L 169.117188 292.738281 L 169.117188 171.046875 L 191.175781 171.046875 L 191.175781 183.8125 C 191.175781 191.761719 199.351562 197.097656 206.632812 193.914062 C 247.527344 175.996094 294.117188 205.980469 294.117188 251.195312 Z M 294.117188 292.738281 " fill-opacity="1" fill-rule="nonzero"/><path fill="#d66049" d="M 91.910156 60.203125 C 73.667969 60.203125 58.824219 75.046875 58.824219 93.289062 C 58.824219 111.535156 73.667969 126.378906 91.910156 126.378906 C 110.15625 126.378906 125 111.535156 125 93.289062 C 125 75.046875 110.15625 60.203125 91.910156 60.203125 Z M 91.910156 104.320312 C 85.832031 104.320312 80.882812 99.371094 80.882812 93.289062 C 80.882812 87.207031 85.832031 82.261719 91.910156 82.261719 C 97.992188 82.261719 102.941406 87.207031 102.941406 93.289062 C 102.941406 99.371094 97.992188 104.320312 91.910156 104.320312 Z M 91.910156 104.320312 " fill-opacity="1" fill-rule="nonzero"/></svg>