<svg xmlns="http://www.w3.org/2000/svg" xmlns:xlink="http://www.w3.org/1999/xlink" width="1080" zoomAndPan="magnify" viewBox="0 0 810 809.999993" height="1080" preserveAspectRatio="xMidYMid meet" version="1.0"><path fill="#fbfbfa" d="M 491.546875 444.613281 L 498.214844 435.214844 L 533.851562 427.53125 C 555.863281 422.789062 575.488281 410.332031 589.148438 392.421875 C 778.382812 144.316406 758.683594 48.132812 740.707031 17.714844 C 736.695312 10.910156 727.023438 10.417969 722.191406 16.671875 L 439.152344 383.148438 Z M 491.546875 444.613281 " fill-opacity="1" fill-rule="nonzero"/><path fill="#fbfbfa" d="M 366.378906 470.339844 L 166.882812 728.65625 C 158.265625 739.828125 155.382812 754.394531 159.132812 767.996094 L 160.769531 773.933594 C 165.285156 790.359375 178.71875 802.8125 195.449219 806.085938 C 212.746094 809.457031 230.421875 802.398438 240.636719 788.019531 L 418.359375 537.851562 Z M 366.378906 470.339844 " fill-opacity="1" fill-rule="nonzero"/><path fill="#fbfbfa" d="M 300.375 359.714844 L 273.203125 366.632812 C 248.082031 373.023438 221.425781 368.304688 200.039062 353.6875 C 189.472656 346.46875 180.582031 337.082031 173.949219 326.152344 L 34.796875 96.976562 C 31.726562 91.933594 33.125 85.367188 37.992188 82.007812 C 42.746094 78.710938 49.226562 79.566406 52.960938 83.972656 L 196.003906 252.953125 C 201.046875 258.914062 210.09375 259.417969 215.777344 254.035156 C 220.644531 249.417969 221.414062 241.957031 217.589844 236.460938 L 92.183594 56.21875 C 89.265625 52.019531 89.984375 46.296875 93.855469 42.949219 C 97.972656 39.402344 104.160156 39.753906 107.832031 43.765625 L 252.625 201.839844 C 257.417969 207.074219 265.441406 207.765625 271.066406 203.4375 C 277.050781 198.820312 278.148438 190.230469 273.492188 184.28125 L 147.167969 22.394531 C 142.742188 16.722656 143.886719 8.519531 149.710938 4.28125 C 154.765625 0.59375 161.761719 1.097656 166.226562 5.488281 L 358.066406 193.867188 C 368.304688 203.917969 375.625 216.535156 379.273438 230.394531 C 385.335938 253.429688 380.734375 277.960938 366.730469 297.257812 L 356.667969 311.132812 L 713.171875 728.207031 C 722.792969 739.453125 726.542969 754.570312 723.296875 768.988281 C 718.996094 788.121094 703.246094 802.574219 683.785156 805.28125 L 675.179688 806.476562 C 658.402344 808.800781 641.667969 801.972656 631.328125 788.574219 Z M 300.375 359.714844 " fill-opacity="1" fill-rule="nonzero"/></svg>