<svg xmlns="http://www.w3.org/2000/svg" xmlns:xlink="http://www.w3.org/1999/xlink" width="500" zoomAndPan="magnify" viewBox="0 0 375 374.999991" height="500" preserveAspectRatio="xMidYMid meet" version="1.0"><defs><g/></defs><g fill="#d66049" fill-opacity="1"><g transform="translate(10.114033, 127.788961)"><g><path d="M 28.730469 19.363281 C 49.535156 19.363281 60.703125 4.863281 64.214844 -18.28125 C 65.566406 -27.378906 67.1875 -31.792969 68.628906 -36.386719 C 71.511719 -45.84375 77.90625 -52.597656 77.816406 -58.632812 C 77.90625 -62.773438 75.472656 -64.9375 71.78125 -64.9375 C 68.898438 -64.9375 64.578125 -63.585938 60.074219 -47.734375 C 56.109375 -34.222656 52.507812 -26.117188 45.210938 -26.117188 C 42.148438 -26.117188 40.800781 -28.460938 40.800781 -32.242188 C 40.800781 -39.988281 47.824219 -52.507812 55.839844 -55.75 C 58.8125 -63.496094 52.328125 -67.007812 41.96875 -67.007812 C 17.023438 -67.007812 1.351562 -54.488281 1.351562 -39.808594 C 1.351562 -33.683594 5.222656 -28.101562 12.609375 -28.101562 C 21.34375 -28.101562 26.027344 -35.84375 24.40625 -39.808594 C 22.425781 -39.808594 20.984375 -41.789062 20.984375 -44.402344 C 20.984375 -52.238281 30.261719 -56.289062 45.300781 -55.75 C 35.574219 -50.886719 25.578125 -33.59375 25.578125 -22.335938 C 25.578125 -13.601562 29.902344 -7.207031 37.917969 -7.207031 C 45.210938 -7.207031 52.058594 -12.609375 54.9375 -22.425781 C 55.390625 -23.867188 56.921875 -23.957031 56.921875 -22.425781 C 56.921875 -18.101562 53.589844 -1.351562 36.566406 -1.351562 C 25.9375 -1.351562 21.796875 -8.375 22.15625 -14.410156 C 22.15625 -15.492188 21.796875 -16.390625 19.09375 -16.390625 C 1.710938 -16.390625 -2.339844 19.363281 28.730469 19.363281 Z M 28.730469 19.363281 "/></g></g></g><g fill="#d66049" fill-opacity="1"><g transform="translate(78.562288, 127.788961)"><g><path d="M 47.105469 -24.675781 C 45.300781 -21.976562 43.589844 -20.085938 40.890625 -20.085938 C 38.457031 -20.085938 36.296875 -21.617188 36.296875 -25.039062 C 36.296875 -29.542969 40.347656 -36.386719 40.347656 -41.429688 C 40.347656 -44.042969 39.359375 -45.03125 37.558594 -45.03125 C 32.964844 -45.03125 29.269531 -38.636719 25.578125 -26.839844 L 25.488281 -26.480469 C 23.957031 -21.976562 21.164062 -20.175781 17.921875 -20.175781 C 14.949219 -20.175781 14.140625 -21.707031 14.140625 -24.226562 C 14.140625 -29.542969 18.191406 -35.574219 18.191406 -41.429688 C 18.191406 -43.769531 17.382812 -45.03125 15.402344 -45.03125 C 10.359375 -45.03125 6.214844 -37.828125 2.070312 -24.675781 C 0.269531 -18.824219 0.0898438 -13.507812 0.0898438 -10.808594 C 0.0898438 -3.421875 3.152344 -0.0898438 8.015625 -0.0898438 C 15.039062 -0.0898438 19.542969 -7.113281 22.515625 -13.507812 C 22.335938 -12.160156 22.246094 -10.988281 22.246094 -9.816406 C 22.246094 -3.421875 24.675781 0 29.992188 0 C 42.148438 0 48.273438 -17.472656 51.15625 -22.425781 C 52.148438 -24.136719 48.542969 -26.839844 47.105469 -24.675781 Z M 47.105469 -24.675781 "/></g></g></g><g fill="#d66049" fill-opacity="1"><g transform="translate(123.594035, 127.788961)"><g><path d="M 5.675781 0 C 12.070312 0 13.238281 -4.953125 13.238281 -9.546875 L 13.238281 -13.601562 C 13.238281 -21.617188 17.742188 -29.089844 22.964844 -29.089844 C 25.039062 -29.089844 26.390625 -28.011719 26.390625 -25.578125 C 26.390625 -20.984375 21.886719 -14.859375 21.886719 -8.015625 C 21.886719 -2.070312 24.949219 -0.179688 29.089844 -0.179688 C 35.84375 -0.179688 37.105469 -5.132812 37.105469 -8.917969 C 37.105469 -11.527344 36.476562 -12.429688 36.476562 -15.039062 C 36.476562 -21.796875 40.980469 -29.269531 46.203125 -29.269531 C 48.273438 -29.269531 49.625 -28.191406 49.625 -26.117188 C 49.625 -22.425781 45.84375 -16.390625 45.84375 -9.546875 C 45.84375 -4.414062 47.824219 0 53.589844 0 C 65.746094 0 71.871094 -17.472656 74.753906 -22.425781 C 75.746094 -24.136719 72.140625 -26.839844 70.699219 -24.675781 C 68.898438 -21.976562 67.1875 -20.085938 64.484375 -20.085938 C 61.425781 -20.085938 60.074219 -21.617188 60.074219 -24.769531 C 60.074219 -29.269531 62.957031 -32.152344 62.957031 -36.925781 C 62.957031 -41.429688 60.34375 -45.210938 53.316406 -45.210938 C 48.996094 -45.210938 45.121094 -43.140625 41.699219 -39.359375 C 40.347656 -37.828125 39.71875 -38.1875 39.449219 -39.359375 C 38.546875 -42.601562 36.027344 -45.03125 31.613281 -45.03125 C 27.648438 -45.03125 24.046875 -43.140625 20.714844 -39.898438 C 17.832031 -37.015625 15.851562 -38.546875 15.851562 -41.609375 C 15.851562 -43.410156 15.128906 -45.03125 13.058594 -45.03125 C 9.457031 -45.03125 5.765625 -35.753906 2.070312 -24.675781 C -0.449219 -17.292969 -0.902344 -10.808594 -0.902344 -6.574219 C -0.902344 -2.792969 1.441406 0 5.675781 0 Z M 5.675781 0 "/></g></g></g><g fill="#d66049" fill-opacity="1"><g transform="translate(10.114033, 212.37317)"><g/></g></g><g fill="#d66049" fill-opacity="1"><g transform="translate(42.536893, 212.37317)"><g/></g></g><g fill="#d66049" fill-opacity="1"><g transform="translate(74.965597, 212.37317)"><g><path d="M 28.730469 19.363281 C 49.535156 19.363281 60.703125 4.863281 64.214844 -18.28125 C 65.566406 -27.378906 67.1875 -31.792969 68.628906 -36.386719 C 71.511719 -45.84375 77.90625 -52.597656 77.816406 -58.632812 C 77.90625 -62.773438 75.472656 -64.9375 71.78125 -64.9375 C 68.898438 -64.9375 64.578125 -63.585938 60.074219 -47.734375 C 56.109375 -34.222656 52.507812 -26.117188 45.210938 -26.117188 C 42.148438 -26.117188 40.800781 -28.460938 40.800781 -32.242188 C 40.800781 -39.988281 47.824219 -52.507812 55.839844 -55.75 C 58.8125 -63.496094 52.328125 -67.007812 41.96875 -67.007812 C 17.023438 -67.007812 1.351562 -54.488281 1.351562 -39.808594 C 1.351562 -33.683594 5.222656 -28.101562 12.609375 -28.101562 C 21.34375 -28.101562 26.027344 -35.84375 24.40625 -39.808594 C 22.425781 -39.808594 20.984375 -41.789062 20.984375 -44.402344 C 20.984375 -52.238281 30.261719 -56.289062 45.300781 -55.75 C 35.574219 -50.886719 25.578125 -33.59375 25.578125 -22.335938 C 25.578125 -13.601562 29.902344 -7.207031 37.917969 -7.207031 C 45.210938 -7.207031 52.058594 -12.609375 54.9375 -22.425781 C 55.390625 -23.867188 56.921875 -23.957031 56.921875 -22.425781 C 56.921875 -18.101562 53.589844 -1.351562 36.566406 -1.351562 C 25.9375 -1.351562 21.796875 -8.375 22.15625 -14.410156 C 22.15625 -15.492188 21.796875 -16.390625 19.09375 -16.390625 C 1.710938 -16.390625 -2.339844 19.363281 28.730469 19.363281 Z M 28.730469 19.363281 "/></g></g></g><g fill="#d66049" fill-opacity="1"><g transform="translate(143.413852, 212.37317)"><g><path d="M 47.105469 -24.675781 C 45.300781 -21.976562 43.589844 -20.085938 40.890625 -20.085938 C 38.457031 -20.085938 36.296875 -21.617188 36.296875 -25.039062 C 36.296875 -29.542969 40.347656 -36.386719 40.347656 -41.429688 C 40.347656 -44.042969 39.359375 -45.03125 37.558594 -45.03125 C 32.964844 -45.03125 29.269531 -38.636719 25.578125 -26.839844 L 25.488281 -26.480469 C 23.957031 -21.976562 21.164062 -20.175781 17.921875 -20.175781 C 14.949219 -20.175781 14.140625 -21.707031 14.140625 -24.226562 C 14.140625 -29.542969 18.191406 -35.574219 18.191406 -41.429688 C 18.191406 -43.769531 17.382812 -45.03125 15.402344 -45.03125 C 10.359375 -45.03125 6.214844 -37.828125 2.070312 -24.675781 C 0.269531 -18.824219 0.0898438 -13.507812 0.0898438 -10.808594 C 0.0898438 -3.421875 3.152344 -0.0898438 8.015625 -0.0898438 C 15.039062 -0.0898438 19.542969 -7.113281 22.515625 -13.507812 C 22.335938 -12.160156 22.246094 -10.988281 22.246094 -9.816406 C 22.246094 -3.421875 24.675781 0 29.992188 0 C 42.148438 0 48.273438 -17.472656 51.15625 -22.425781 C 52.148438 -24.136719 48.542969 -26.839844 47.105469 -24.675781 Z M 47.105469 -24.675781 "/></g></g></g><g fill="#d66049" fill-opacity="1"><g transform="translate(188.4456, 212.37317)"><g><path d="M 5.675781 0 C 12.070312 0 13.238281 -4.953125 13.238281 -9.546875 L 13.238281 -13.601562 C 13.238281 -21.617188 17.742188 -29.089844 22.964844 -29.089844 C 25.039062 -29.089844 26.390625 -28.011719 26.390625 -25.578125 C 26.390625 -20.984375 21.886719 -14.859375 21.886719 -8.015625 C 21.886719 -2.070312 24.949219 -0.179688 29.089844 -0.179688 C 35.84375 -0.179688 37.105469 -5.132812 37.105469 -8.917969 C 37.105469 -11.527344 36.476562 -12.429688 36.476562 -15.039062 C 36.476562 -21.796875 40.980469 -29.269531 46.203125 -29.269531 C 48.273438 -29.269531 49.625 -28.191406 49.625 -26.117188 C 49.625 -22.425781 45.84375 -16.390625 45.84375 -9.546875 C 45.84375 -4.414062 47.824219 0 53.589844 0 C 65.746094 0 71.871094 -17.472656 74.753906 -22.425781 C 75.746094 -24.136719 72.140625 -26.839844 70.699219 -24.675781 C 68.898438 -21.976562 67.1875 -20.085938 64.484375 -20.085938 C 61.425781 -20.085938 60.074219 -21.617188 60.074219 -24.769531 C 60.074219 -29.269531 62.957031 -32.152344 62.957031 -36.925781 C 62.957031 -41.429688 60.34375 -45.210938 53.316406 -45.210938 C 48.996094 -45.210938 45.121094 -43.140625 41.699219 -39.359375 C 40.347656 -37.828125 39.71875 -38.1875 39.449219 -39.359375 C 38.546875 -42.601562 36.027344 -45.03125 31.613281 -45.03125 C 27.648438 -45.03125 24.046875 -43.140625 20.714844 -39.898438 C 17.832031 -37.015625 15.851562 -38.546875 15.851562 -41.609375 C 15.851562 -43.410156 15.128906 -45.03125 13.058594 -45.03125 C 9.457031 -45.03125 5.765625 -35.753906 2.070312 -24.675781 C -0.449219 -17.292969 -0.902344 -10.808594 -0.902344 -6.574219 C -0.902344 -2.792969 1.441406 0 5.675781 0 Z M 5.675781 0 "/></g></g></g><g fill="#d66049" fill-opacity="1"><g transform="translate(10.114033, 296.957378)"><g/></g></g><g fill="#d66049" fill-opacity="1"><g transform="translate(42.536893, 296.957378)"><g/></g></g><g fill="#d66049" fill-opacity="1"><g transform="translate(74.959754, 296.957378)"><g/></g></g><g fill="#d66049" fill-opacity="1"><g transform="translate(107.382615, 296.957378)"><g/></g></g><g fill="#d66049" fill-opacity="1"><g transform="translate(139.807987, 296.957378)"><g><path d="M 80.066406 -24.675781 C 78.085938 -21.707031 74.664062 -20.085938 71.421875 -20.085938 C 67.097656 -20.085938 64.484375 -23.507812 64.484375 -27.738281 C 64.484375 -29.992188 65.296875 -31.703125 67.097656 -32.421875 C 78.175781 -36.925781 85.921875 -49.175781 85.921875 -58.902344 C 85.921875 -65.207031 82.859375 -67.910156 78.265625 -67.910156 C 69.621094 -67.910156 64.578125 -58.183594 58.542969 -40.710938 C 57.371094 -37.558594 57.101562 -36.117188 54.667969 -35.9375 C 52.957031 -35.753906 51.15625 -35.753906 50.164062 -35.753906 C 48.636719 -35.753906 47.015625 -36.296875 48.363281 -39.808594 C 48.453125 -39.898438 48.453125 -39.898438 48.453125 -39.988281 C 50.074219 -44.042969 51.605469 -48.273438 52.867188 -52.238281 C 56.289062 -61.242188 52.957031 -67.007812 40.890625 -67.007812 C 21.433594 -67.007812 7.566406 -54.039062 7.566406 -38.636719 C 7.566406 -31.703125 11.4375 -25.398438 18.824219 -25.398438 C 27.558594 -25.398438 32.242188 -33.144531 30.621094 -37.105469 C 28.640625 -37.105469 27.199219 -39.089844 27.199219 -41.609375 C 27.199219 -49.355469 34.675781 -54.9375 43.140625 -52.597656 C 40.347656 -45.664062 37.648438 -39.359375 35.484375 -33.683594 C 31.34375 -22.785156 23.867188 -18.28125 17.652344 -18.28125 C 12.699219 -18.28125 8.828125 -20.984375 8.828125 -24.949219 C 8.828125 -25.578125 8.195312 -26.027344 7.476562 -26.027344 C 0.269531 -26.027344 -4.503906 -18.734375 -4.503906 -11.347656 C -4.503906 -3.871094 0.628906 3.78125 11.078125 3.78125 C 23.957031 3.78125 33.144531 -5.3125 39.808594 -19.542969 C 40.4375 -20.894531 41.339844 -22.964844 42.421875 -25.488281 C 42.601562 -25.9375 42.871094 -26.480469 43.140625 -27.019531 C 44.402344 -29.449219 45.664062 -29.359375 47.015625 -29.359375 C 51.695312 -29.359375 54.667969 -30.171875 53.046875 -24.949219 L 52.957031 -24.585938 C 51.15625 -19.183594 50.796875 -14.769531 50.796875 -10.808594 C 50.796875 -3.78125 54.9375 0 61.332031 0 C 74.664062 0 81.238281 -17.382812 84.121094 -22.425781 C 85.109375 -24.136719 81.507812 -26.839844 80.066406 -24.675781 Z M 68.179688 -44.761719 C 69.257812 -48.003906 70.519531 -51.066406 73.042969 -51.066406 C 74.304688 -51.066406 74.933594 -50.164062 74.933594 -48.816406 C 74.933594 -45.484375 70.609375 -39.539062 67.910156 -39.539062 C 67.097656 -39.539062 66.738281 -40.167969 68.179688 -44.761719 Z M 68.179688 -44.761719 "/></g></g></g><g fill="#d66049" fill-opacity="1"><g transform="translate(217.802975, 296.957378)"><g><path d="M 47.105469 -24.675781 C 45.300781 -21.976562 43.589844 -20.085938 40.890625 -20.085938 C 38.457031 -20.085938 36.296875 -21.617188 36.296875 -25.039062 C 36.296875 -29.542969 40.347656 -36.386719 40.347656 -41.429688 C 40.347656 -44.042969 39.359375 -45.03125 37.558594 -45.03125 C 32.964844 -45.03125 29.269531 -38.636719 25.578125 -26.839844 L 25.488281 -26.480469 C 23.957031 -21.976562 21.164062 -20.175781 17.921875 -20.175781 C 14.949219 -20.175781 14.140625 -21.707031 14.140625 -24.226562 C 14.140625 -29.542969 18.191406 -35.574219 18.191406 -41.429688 C 18.191406 -43.769531 17.382812 -45.03125 15.402344 -45.03125 C 10.359375 -45.03125 6.214844 -37.828125 2.070312 -24.675781 C 0.269531 -18.824219 0.0898438 -13.507812 0.0898438 -10.808594 C 0.0898438 -3.421875 3.152344 -0.0898438 8.015625 -0.0898438 C 15.039062 -0.0898438 19.542969 -7.113281 22.515625 -13.507812 C 22.335938 -12.160156 22.246094 -10.988281 22.246094 -9.816406 C 22.246094 -3.421875 24.675781 0 29.992188 0 C 42.148438 0 48.273438 -17.472656 51.15625 -22.425781 C 52.148438 -24.136719 48.542969 -26.839844 47.105469 -24.675781 Z M 47.105469 -24.675781 "/></g></g></g><g fill="#d66049" fill-opacity="1"><g transform="translate(262.834722, 296.957378)"><g><path d="M 43.140625 -24.675781 C 41.339844 -22.066406 39.179688 -20.804688 36.835938 -20.445312 C 38.007812 -24.136719 38.726562 -28.101562 38.726562 -32.242188 C 38.726562 -41.429688 35.035156 -45.03125 28.910156 -45.03125 C 26.839844 -45.03125 24.046875 -44.042969 21.527344 -41.429688 C 20.355469 -40.257812 18.734375 -40.710938 19.09375 -41.96875 C 20.175781 -46.203125 22.515625 -51.15625 24.769531 -56.289062 C 27.46875 -62.144531 26.300781 -64.757812 22.605469 -64.757812 C 17.382812 -64.757812 13.871094 -57.730469 8.917969 -44.222656 C 6.933594 -38.816406 4.683594 -32.242188 2.070312 -24.675781 C -2.792969 -10.539062 4.054688 0 15.222656 0 C 21.074219 0 27.109375 -3.960938 31.613281 -10.085938 C 40.167969 -10.628906 44.582031 -17.023438 47.195312 -22.425781 C 48.183594 -24.496094 44.222656 -26.207031 43.140625 -24.675781 Z M 14.050781 -23.507812 C 14.050781 -27.46875 17.023438 -31.882812 21.433594 -31.882812 C 24.949219 -31.882812 26.390625 -29.722656 26.390625 -27.109375 C 26.390625 -23.328125 23.238281 -18.644531 18.734375 -18.644531 C 15.3125 -18.644531 14.050781 -20.894531 14.050781 -23.507812 Z M 14.050781 -23.507812 "/></g></g></g><g fill="#d66049" fill-opacity="1"><g transform="translate(96.888543, 344.203131)"><g><path d="M 6.578125 -7.613281 L 6.609375 -7.613281 L 11.683594 0 L 17.636719 0 L 11.527344 -7.832031 C 14.222656 -8.488281 16.382812 -10.871094 16.382812 -14.472656 C 16.382812 -18.511719 13.3125 -21.300781 9.867188 -21.300781 L 1.878906 -21.300781 L 1.878906 0 L 6.578125 0 Z M 9.085938 -17.605469 C 10.460938 -17.605469 11.902344 -16.414062 11.902344 -14.472656 C 11.902344 -12.4375 10.460938 -11.308594 9.085938 -11.308594 L 6.578125 -11.308594 L 6.578125 -17.605469 Z M 9.085938 -17.605469 "/></g></g></g><g fill="#d66049" fill-opacity="1"><g transform="translate(114.14827, 344.203131)"><g><path d="M 14.222656 -4.261719 L 6.578125 -4.261719 L 6.578125 -8.550781 L 13.910156 -8.550781 L 13.910156 -12.8125 L 6.578125 -12.8125 L 6.578125 -17.042969 L 14.222656 -17.042969 L 14.222656 -21.300781 L 1.878906 -21.300781 L 1.878906 0 L 14.222656 0 Z M 14.222656 -4.261719 "/></g></g></g><g fill="#d66049" fill-opacity="1"><g transform="translate(130.248999, 344.203131)"><g><path d="M 17.261719 -7.234375 C 16.382812 -5.355469 14.253906 -4.074219 12.058594 -4.074219 C 8.613281 -4.074219 5.859375 -7.015625 5.859375 -10.652344 C 5.859375 -14.253906 8.613281 -17.230469 12.058594 -17.230469 C 14.222656 -17.230469 16.351562 -16.039062 17.230469 -14.128906 L 22.460938 -14.128906 C 21.019531 -18.480469 16.914062 -21.613281 12.058594 -21.613281 C 6.015625 -21.613281 1.097656 -16.695312 1.097656 -10.652344 C 1.097656 -4.605469 6.015625 0.3125 12.058594 0.3125 C 16.914062 0.3125 21.050781 -2.851562 22.492188 -7.234375 Z M 17.261719 -7.234375 "/></g></g></g><g fill="#d66049" fill-opacity="1"><g transform="translate(153.523006, 344.203131)"><g><path d="M 6.578125 0 L 6.578125 -21.300781 L 1.878906 -21.300781 L 1.878906 0 Z M 6.578125 0 "/></g></g></g><g fill="#d66049" fill-opacity="1"><g transform="translate(161.98059, 344.203131)"><g><path d="M 6.578125 -7.613281 L 9.867188 -7.613281 C 13.3125 -7.613281 16.382812 -10.148438 16.382812 -14.472656 C 16.382812 -18.511719 13.3125 -21.300781 9.867188 -21.300781 L 1.878906 -21.300781 L 1.878906 0 L 6.578125 0 Z M 9.085938 -17.605469 C 10.460938 -17.605469 11.902344 -16.414062 11.902344 -14.472656 C 11.902344 -12.4375 10.460938 -11.308594 9.085938 -11.308594 L 6.578125 -11.308594 L 6.578125 -17.605469 Z M 9.085938 -17.605469 "/></g></g></g><g fill="#d66049" fill-opacity="1"><g transform="translate(178.833107, 344.203131)"><g><path d="M 14.222656 -4.261719 L 6.578125 -4.261719 L 6.578125 -8.550781 L 13.910156 -8.550781 L 13.910156 -12.8125 L 6.578125 -12.8125 L 6.578125 -17.042969 L 14.222656 -17.042969 L 14.222656 -21.300781 L 1.878906 -21.300781 L 1.878906 0 L 14.222656 0 Z M 14.222656 -4.261719 "/></g></g></g><g fill="#d66049" fill-opacity="1"><g transform="translate(194.933837, 344.203131)"><g/></g></g><g fill="#d66049" fill-opacity="1"><g transform="translate(202.764934, 344.203131)"><g><path d="M 18.324219 -10.683594 C 18.324219 -7.394531 15.347656 -4.386719 12.058594 -4.386719 C 8.769531 -4.386719 5.796875 -7.394531 5.796875 -10.683594 C 5.796875 -13.972656 8.769531 -16.945312 12.058594 -16.945312 C 15.347656 -16.945312 18.324219 -13.972656 18.324219 -10.683594 Z M 23.023438 -10.652344 C 23.023438 -16.539062 17.949219 -21.613281 12.058594 -21.613281 C 6.171875 -21.613281 1.097656 -16.539062 1.097656 -10.652344 C 1.097656 -4.761719 6.171875 0.3125 12.058594 0.3125 C 17.949219 0.3125 23.023438 -4.761719 23.023438 -10.652344 Z M 23.023438 -10.652344 "/></g></g></g><g fill="#d66049" fill-opacity="1"><g transform="translate(226.884704, 344.203131)"><g><path d="M 6.578125 -7.613281 L 6.609375 -7.613281 L 11.683594 0 L 17.636719 0 L 11.527344 -7.832031 C 14.222656 -8.488281 16.382812 -10.871094 16.382812 -14.472656 C 16.382812 -18.511719 13.3125 -21.300781 9.867188 -21.300781 L 1.878906 -21.300781 L 1.878906 0 L 6.578125 0 Z M 9.085938 -17.605469 C 10.460938 -17.605469 11.902344 -16.414062 11.902344 -14.472656 C 11.902344 -12.4375 10.460938 -11.308594 9.085938 -11.308594 L 6.578125 -11.308594 L 6.578125 -17.605469 Z M 9.085938 -17.605469 "/></g></g></g><g fill="#d66049" fill-opacity="1"><g transform="translate(244.14443, 344.203131)"><g><path d="M 12.53125 -17.230469 C 14.597656 -17.230469 16.726562 -16.382812 17.761719 -14.128906 L 22.929688 -14.128906 C 21.457031 -18.542969 17.230469 -21.613281 12.53125 -21.613281 C 6.515625 -21.613281 1.566406 -16.664062 1.566406 -10.652344 C 1.566406 -4.636719 6.515625 0.3125 12.53125 0.3125 C 18.605469 0.3125 23.460938 -4.605469 23.460938 -10.652344 L 23.460938 -11.371094 L 12.96875 -11.371094 L 12.96875 -7.832031 L 18.386719 -7.832031 C 17.230469 -4.605469 14.597656 -3.945312 12.53125 -3.945312 C 9.148438 -3.945312 6.328125 -6.984375 6.328125 -10.589844 C 6.328125 -14.191406 9.148438 -17.230469 12.53125 -17.230469 Z M 12.53125 -17.230469 "/></g></g></g><g fill="#d66049" fill-opacity="1"><g transform="translate(268.702744, 344.203131)"><g><path d="M 13.46875 -8.144531 L 8.082031 -8.144531 L 10.777344 -15.726562 Z M 21.425781 0 L 12.78125 -21.300781 L 8.800781 -21.300781 L 0.15625 0 L 5.199219 0 L 6.734375 -4.292969 L 14.847656 -4.292969 L 16.382812 0 Z M 21.425781 0 "/></g></g></g><g fill="#d66049" fill-opacity="1"><g transform="translate(290.285234, 344.203131)"><g><path d="M 18.605469 0 L 18.605469 -21.300781 L 13.910156 -21.300781 L 13.910156 -8.019531 L 6.578125 -21.300781 L 1.878906 -21.300781 L 1.878906 0 L 6.578125 0 L 6.578125 -13.28125 L 13.910156 0 Z M 18.605469 0 "/></g></g></g><g fill="#d66049" fill-opacity="1"><g transform="translate(310.771368, 344.203131)"><g><path d="M 6.578125 0 L 6.578125 -21.300781 L 1.878906 -21.300781 L 1.878906 0 Z M 6.578125 0 "/></g></g></g><g fill="#d66049" fill-opacity="1"><g transform="translate(319.228943, 344.203131)"><g><path d="M 16.664062 -4.261719 L 8.269531 -4.261719 L 17.167969 -21.300781 L 1.253906 -21.300781 L 1.253906 -17.042969 L 9.523438 -17.042969 L 0.625 0 L 16.664062 0 Z M 16.664062 -4.261719 "/></g></g></g><g fill="#d66049" fill-opacity="1"><g transform="translate(337.021198, 344.203131)"><g><path d="M 14.222656 -4.261719 L 6.578125 -4.261719 L 6.578125 -8.550781 L 13.910156 -8.550781 L 13.910156 -12.8125 L 6.578125 -12.8125 L 6.578125 -17.042969 L 14.222656 -17.042969 L 14.222656 -21.300781 L 1.878906 -21.300781 L 1.878906 0 L 14.222656 0 Z M 14.222656 -4.261719 "/></g></g></g><g fill="#d66049" fill-opacity="1"><g transform="translate(353.121928, 344.203131)"><g><path d="M 6.578125 -7.613281 L 6.609375 -7.613281 L 11.683594 0 L 17.636719 0 L 11.527344 -7.832031 C 14.222656 -8.488281 16.382812 -10.871094 16.382812 -14.472656 C 16.382812 -18.511719 13.3125 -21.300781 9.867188 -21.300781 L 1.878906 -21.300781 L 1.878906 0 L 6.578125 0 Z M 9.085938 -17.605469 C 10.460938 -17.605469 11.902344 -16.414062 11.902344 -14.472656 C 11.902344 -12.4375 10.460938 -11.308594 9.085938 -11.308594 L 6.578125 -11.308594 L 6.578125 -17.605469 Z M 9.085938 -17.605469 "/></g></g></g><g fill="#d66049" fill-opacity="1"><g transform="translate(0.0000045, 51.355503)"><g><path d="M 10.933594 -17.042969 L 17.007812 -17.042969 L 17.007812 -21.300781 L 0.15625 -21.300781 L 0.15625 -17.042969 L 6.234375 -17.042969 L 6.234375 0 L 10.933594 0 Z M 10.933594 -17.042969 "/></g></g></g><g fill="#d66049" fill-opacity="1"><g transform="translate(17.165765, 51.355503)"><g><path d="M 13.59375 -21.300781 L 13.59375 -12.8125 L 6.578125 -12.8125 L 6.578125 -21.300781 L 1.878906 -21.300781 L 1.878906 0 L 6.578125 0 L 6.578125 -8.550781 L 13.59375 -8.550781 L 13.59375 0 L 18.605469 0 L 18.605469 -21.300781 Z M 13.59375 -21.300781 "/></g></g></g><g fill="#d66049" fill-opacity="1"><g transform="translate(37.651908, 51.355503)"><g><path d="M 14.222656 -4.261719 L 6.578125 -4.261719 L 6.578125 -8.550781 L 13.910156 -8.550781 L 13.910156 -12.8125 L 6.578125 -12.8125 L 6.578125 -17.042969 L 14.222656 -17.042969 L 14.222656 -21.300781 L 1.878906 -21.300781 L 1.878906 0 L 14.222656 0 Z M 14.222656 -4.261719 "/></g></g></g></svg>