<svg xmlns="http://www.w3.org/2000/svg" xmlns:xlink="http://www.w3.org/1999/xlink" width="500" zoomAndPan="magnify" viewBox="0 0 375 374.999991" height="500" preserveAspectRatio="xMidYMid meet" version="1.0"><defs><clipPath id="4a34c32c65"><path d="M 68.46875 75.46875 L 309.21875 75.46875 L 309.21875 316.21875 L 68.46875 316.21875 Z M 68.46875 75.46875 " clip-rule="nonzero"/></clipPath><clipPath id="26332ca022"><path d="M 126.199219 195.261719 L 286.457031 195.261719 L 286.457031 279.097656 L 126.199219 279.097656 Z M 126.199219 195.261719 " clip-rule="nonzero"/></clipPath><clipPath id="85e5dd06f2"><path d="M 53 39 L 188 39 L 188 175 L 53 175 Z M 53 39 " clip-rule="nonzero"/></clipPath><clipPath id="cf9e8fd07a"><path d="M 53.890625 64.785156 L 161.273438 39.3125 L 187.242188 148.773438 L 79.859375 174.25 Z M 53.890625 64.785156 " clip-rule="nonzero"/></clipPath><clipPath id="a7b5c0abf8"><path d="M 53.890625 64.785156 L 161.273438 39.3125 L 187.242188 148.773438 L 79.859375 174.25 Z M 53.890625 64.785156 " clip-rule="nonzero"/></clipPath><clipPath id="8ed81be6d7"><path d="M 46 33 L 188 33 L 188 179 L 46 179 Z M 46 33 " clip-rule="nonzero"/></clipPath><clipPath id="3333ac1594"><path d="M 30.964844 61.0625 L 151.5 11.046875 L 201.226562 130.886719 L 80.691406 180.902344 Z M 30.964844 61.0625 " clip-rule="nonzero"/></clipPath><clipPath id="819dbb1809"><path d="M 30.964844 61.0625 L 151.5 11.046875 L 201.226562 130.886719 L 80.691406 180.902344 Z M 30.964844 61.0625 " clip-rule="nonzero"/></clipPath></defs><g clip-path="url(#4a34c32c65)"><path fill="#ffffff" d="M 188.957031 316.441406 C 122.390625 316.441406 68.46875 262.148438 68.46875 195.957031 C 68.46875 129.761719 122.390625 75.46875 188.957031 75.46875 C 255.519531 75.46875 309.441406 129.390625 309.441406 195.957031 C 309.441406 262.519531 255.148438 316.441406 188.957031 316.441406 Z M 188.957031 82.90625 C 126.480469 82.90625 75.90625 133.480469 75.90625 195.957031 C 75.90625 258.429688 126.480469 309.003906 188.957031 309.003906 C 251.429688 309.003906 302.003906 258.429688 302.003906 195.957031 C 302.003906 133.480469 251.058594 82.90625 188.957031 82.90625 Z M 188.957031 82.90625 " fill-opacity="1" fill-rule="nonzero"/></g><path fill="#ffffff" d="M 129.730469 223.808594 C 127.753906 223.808594 125.96875 222.449219 125.507812 220.4375 C 123.890625 213.378906 124.652344 206.046875 127.660156 199.796875 C 130.757812 193.351562 136.019531 188.507812 142.472656 186.160156 C 148.925781 183.8125 156.070312 184.140625 162.585938 187.085938 C 168.90625 189.941406 174.203125 195.066406 177.503906 201.515625 C 178.59375 203.644531 177.75 206.261719 175.617188 207.351562 C 173.484375 208.441406 170.871094 207.597656 169.78125 205.464844 C 164.859375 195.847656 154.394531 191.050781 145.4375 194.3125 C 136.484375 197.570312 131.550781 207.96875 133.960938 218.503906 C 134.496094 220.835938 133.039062 223.164062 130.703125 223.699219 C 130.378906 223.773438 130.050781 223.808594 129.730469 223.808594 " fill-opacity="1" fill-rule="nonzero"/><path fill="#ffffff" d="M 216.132812 192.359375 C 214.15625 192.359375 212.371094 191 211.910156 188.992188 C 210.292969 181.929688 211.058594 174.601562 214.0625 168.347656 C 217.160156 161.90625 222.421875 157.0625 228.875 154.710938 C 235.328125 152.363281 242.472656 152.691406 248.988281 155.636719 C 255.308594 158.492188 260.605469 163.617188 263.90625 170.066406 C 264.996094 172.199219 264.152344 174.8125 262.019531 175.902344 C 259.886719 176.992188 257.273438 176.148438 256.183594 174.019531 C 251.261719 164.398438 240.796875 159.601562 231.84375 162.863281 C 222.886719 166.121094 217.953125 176.523438 220.367188 187.054688 C 220.902344 189.390625 219.441406 191.714844 217.105469 192.25 C 216.78125 192.324219 216.453125 192.359375 216.132812 192.359375 " fill-opacity="1" fill-rule="nonzero"/><g clip-path="url(#26332ca022)"><path fill="#ffffff" d="M 188.433594 279.328125 C 183.640625 279.328125 178.859375 278.980469 174.128906 278.28125 C 165.84375 277.058594 157.753906 274.769531 150.082031 271.476562 C 142.183594 268.085938 134.714844 263.625 127.882812 258.214844 C 126.003906 256.726562 125.6875 254 127.175781 252.121094 C 128.660156 250.242188 131.390625 249.925781 133.269531 251.414062 C 157.773438 270.820312 190.238281 275.914062 220.109375 265.042969 C 249.976562 254.171875 271.570312 229.398438 277.871094 198.78125 C 278.351562 196.433594 280.648438 194.925781 282.992188 195.40625 C 285.339844 195.890625 286.851562 198.183594 286.367188 200.53125 C 284.609375 209.066406 281.757812 217.285156 277.886719 224.960938 C 274.125 232.414062 269.398438 239.367188 263.839844 245.628906 C 252.921875 257.929688 238.824219 267.460938 223.074219 273.195312 C 211.902344 277.261719 200.136719 279.328125 188.433594 279.328125 " fill-opacity="1" fill-rule="nonzero"/></g><path fill="#ffffff" d="M 230.316406 269.929688 C 228.710938 269.929688 227.164062 269.03125 226.414062 267.488281 C 225.367188 265.335938 226.261719 262.738281 228.414062 261.691406 C 232.851562 259.53125 235.105469 252 232.964844 246.484375 C 232.082031 244.207031 229.539062 237.210938 227.164062 230.664062 C 225.148438 225.101562 225.417969 219.082031 227.921875 213.714844 C 230.425781 208.351562 234.871094 204.28125 240.433594 202.257812 C 246.003906 200.230469 252.03125 200.496094 257.402344 203.003906 C 262.777344 205.515625 266.851562 209.964844 268.875 215.542969 C 269.746094 217.945312 270.15625 219.082031 270.421875 219.808594 C 270.617188 220.347656 270.730469 220.660156 270.886719 221.097656 C 271.726562 223.402344 274.191406 231.359375 270.660156 237 C 269.390625 239.03125 266.714844 239.648438 264.683594 238.378906 C 262.652344 237.105469 262.035156 234.429688 263.308594 232.398438 C 264.195312 230.980469 263.949219 227.398438 262.738281 224.066406 C 262.574219 223.621094 262.460938 223.304688 262.265625 222.757812 C 262 222.035156 261.589844 220.898438 260.722656 218.5 C 259.488281 215.105469 257.007812 212.390625 253.734375 210.863281 C 250.460938 209.335938 246.792969 209.175781 243.398438 210.410156 C 236.410156 212.953125 232.785156 220.714844 235.320312 227.710938 C 237.675781 234.210938 240.199219 241.152344 241.054688 243.347656 C 242.792969 247.839844 242.90625 253.226562 241.367188 258.132812 C 240.59375 260.585938 239.460938 262.792969 237.996094 264.691406 C 236.375 266.796875 234.425781 268.414062 232.210938 269.492188 C 231.601562 269.789062 230.953125 269.929688 230.316406 269.929688 " fill-opacity="1" fill-rule="nonzero"/><path fill="#ffffff" d="M 252.785156 254.925781 C 251.484375 254.925781 250.203125 254.347656 249.347656 253.238281 C 247.882812 251.34375 248.234375 248.621094 250.128906 247.15625 C 252.222656 245.539062 249.929688 239.371094 249.066406 237.046875 C 248.964844 236.777344 248.871094 236.523438 248.785156 236.289062 L 245.1875 226.402344 C 244.367188 224.152344 245.53125 221.664062 247.78125 220.84375 C 250.03125 220.027344 252.519531 221.1875 253.339844 223.4375 L 256.9375 233.324219 C 257.015625 233.539062 257.105469 233.773438 257.199219 234.023438 C 257.984375 236.144531 259.175781 239.347656 259.542969 242.714844 C 260.222656 248.914062 257.679688 252.285156 255.429688 254.023438 C 254.640625 254.632812 253.707031 254.925781 252.785156 254.925781 " fill-opacity="1" fill-rule="nonzero"/><g clip-path="url(#85e5dd06f2)"><g clip-path="url(#cf9e8fd07a)"><g clip-path="url(#a7b5c0abf8)"><path fill="#d66049" d="M 53.890625 64.785156 L 161.273438 39.3125 L 187.242188 148.773438 L 79.859375 174.25 Z M 53.890625 64.785156 " fill-opacity="1" fill-rule="nonzero"/></g></g></g><g clip-path="url(#8ed81be6d7)"><g clip-path="url(#3333ac1594)"><g clip-path="url(#819dbb1809)"><path fill="#ffffff" d="M 89.835938 117.421875 C 91.914062 94.253906 93.933594 71.230469 96.050781 48.210938 C 96.425781 44.148438 97.222656 40.128906 97.882812 36.117188 C 98.347656 33.3125 99.917969 32.46875 102.488281 33.703125 C 103.363281 34.132812 104.152344 34.714844 104.839844 35.386719 C 117.308594 49.789062 143.242188 80.933594 149.710938 87.570312 C 150.074219 87.921875 150.476562 88.257812 150.882812 88.542969 C 152.164062 78.523438 153.355469 68.519531 154.78125 58.558594 C 155.550781 53.136719 156.652344 47.765625 157.832031 42.414062 C 158.085938 41.230469 159.203125 39.425781 160.042969 39.363281 C 161.21875 39.257812 162.957031 40.214844 163.65625 41.265625 C 164.773438 42.910156 165.445312 44.933594 165.941406 46.882812 C 170.347656 64.316406 174.6875 81.757812 178.984375 99.214844 C 181.648438 110.089844 184.277344 120.980469 186.851562 131.867188 C 187.394531 134.15625 186.832031 135.394531 183.941406 135.421875 C 181.460938 135.445312 178.902344 136.265625 176.511719 137.140625 C 163.195312 142.066406 149.746094 146.664062 136.722656 152.234375 C 124.386719 157.5 112.457031 163.742188 100.449219 169.730469 C 95.664062 172.125 91.074219 174.914062 86.476562 177.636719 C 83.628906 179.320312 82.328125 178.089844 81.050781 175.527344 C 71.164062 155.980469 62.089844 136.074219 53.867188 115.792969 C 51.089844 108.988281 49.382812 101.980469 47.089844 95.074219 C 46.863281 94.355469 46.917969 92.988281 47.324219 92.75 C 47.996094 92.351562 49.269531 92.300781 49.917969 92.703125 C 52.929688 94.542969 56.003906 96.40625 58.777344 98.585938 C 68.375 106.175781 78.949219 112.089844 89.835938 117.421875 Z M 161.273438 50.355469 C 161.09375 50.621094 160.976562 50.910156 160.890625 51.230469 C 159.367188 62.621094 157.796875 74.03125 156.390625 85.421875 C 155.960938 88.832031 156.105469 92.296875 155.695312 95.699219 C 155.589844 96.65625 154.539062 97.761719 153.632812 98.234375 C 153.160156 98.476562 151.835938 97.710938 151.253906 97.0625 C 147.949219 93.425781 144.824219 89.644531 141.515625 86.007812 C 135.734375 79.640625 129.574219 73.570312 124.117188 66.945312 C 120.316406 62.339844 116.667969 57.195312 113.035156 52.421875 C 109.4375 47.734375 106.230469 43.125 102.253906 38.734375 L 101.089844 39.171875 C 100.335938 48.375 99.519531 57.554688 98.839844 66.773438 C 97.515625 84.886719 96.21875 103.007812 94.960938 121.117188 C 94.753906 124.078125 92.992188 125.027344 90.382812 123.472656 C 82.152344 118.597656 73.878906 113.789062 65.738281 108.78125 C 62.363281 106.707031 59.257812 104.1875 56.039062 101.855469 C 54.980469 101.097656 53.933594 100.308594 52.867188 99.53125 C 52.867188 99.53125 71.828125 150.074219 84.457031 174.210938 C 114.636719 155.074219 147.214844 141.199219 181.644531 130.167969 C 174.851562 103.46875 168.054688 76.867188 161.273438 50.355469 Z M 125.453125 109.375 C 125.976562 107.625 126.128906 106.027344 126.867188 104.8125 C 127.4375 103.878906 128.746094 102.929688 129.773438 102.863281 C 130.582031 102.789062 132.011719 103.921875 132.238281 104.761719 C 132.886719 107.128906 133.28125 109.527344 133.386719 111.976562 C 133.53125 114.746094 133.371094 117.542969 133.164062 120.335938 C 132.960938 122.960938 130.789062 124.484375 128.429688 123.472656 C 123.363281 121.3125 119.125 118.085938 117.0625 112.710938 C 116.167969 110.378906 115.402344 107.722656 118.039062 106.054688 C 120.617188 104.410156 122.417969 106.441406 124.160156 108.042969 C 124.582031 108.371094 124.921875 108.78125 125.453125 109.375 Z M 125.453125 109.375 " fill-opacity="1" fill-rule="nonzero"/></g></g></g></svg>